<svg xmlns="http://www.w3.org/2000/svg" xmlns:xlink="http://www.w3.org/1999/xlink" width="300" height="300" viewBox="0 0 300 300"><rect width="100%" height="100%" fill="#DDDDDD"/><path d="M64.65 150.27L64.65 164.30Q65.93 165.86 67.44 166.50Q68.95 167.14 70.62 167.14L70.62 167.14Q72.36 167.14 73.75 166.52Q75.14 165.89 76.11 164.56Q77.09 163.24 77.61 161.18Q78.13 159.12 78.13 156.25L78.13 156.25Q78.13 151.10 76.42 148.80Q74.71 146.49 71.51 146.49L71.51 146.49Q69.34 146.49 67.73 147.48Q66.11 148.47 64.65 150.27L64.65 150.27ZM64.65 127.09L64.65 144.97Q66.54 142.98 68.84 141.81Q71.14 140.64 74.10 140.64L74.10 140.64Q76.82 140.64 79.00 141.70Q81.18 142.77 82.72 144.77Q84.26 146.77 85.08 149.60Q85.90 152.44 85.90 155.98L85.90 155.98Q85.90 159.79 84.96 162.90Q84.01 166.01 82.26 168.22Q80.51 170.44 78.04 171.66Q75.56 172.88 72.55 172.88L72.55 172.88Q71.08 172.88 69.89 172.59Q68.70 172.30 67.70 171.78Q66.69 171.26 65.85 170.51Q65.01 169.76 64.25 168.85L64.25 168.85L63.91 170.95Q63.73 171.75 63.29 172.08Q62.85 172.42 62.08 172.42L62.08 172.42L57.11 172.42L57.11 127.09L64.65 127.09ZM108.26 164.33L108.26 159.06Q105.00 159.21 102.77 159.62Q100.54 160.03 99.20 160.67Q97.86 161.32 97.28 162.17Q96.70 163.02 96.70 164.03L96.70 164.03Q96.70 166.01 97.88 166.87Q99.05 167.72 100.94 167.72L100.94 167.72Q103.26 167.72 104.95 166.88Q106.64 166.04 108.26 164.33L108.26 164.33ZM92.34 147.90L91.00 145.49Q96.40 140.54 103.99 140.54L103.99 140.54Q106.74 140.54 108.90 141.44Q111.07 142.34 112.56 143.95Q114.06 145.55 114.83 147.77Q115.61 150 115.61 152.65L115.61 152.65L115.61 172.42L112.20 172.42Q111.13 172.42 110.55 172.10Q109.97 171.78 109.63 170.80L109.63 170.80L108.96 168.54Q107.77 169.61 106.64 170.42Q105.52 171.23 104.30 171.78Q103.08 172.33 101.69 172.62Q100.30 172.91 98.62 172.91L98.62 172.91Q96.64 172.91 94.96 172.37Q93.29 171.84 92.07 170.77Q90.85 169.70 90.17 168.12Q89.50 166.53 89.50 164.43L89.50 164.43Q89.50 163.24 89.90 162.06Q90.30 160.89 91.20 159.82Q92.10 158.75 93.53 157.81Q94.96 156.86 97.05 156.16Q99.14 155.46 101.92 155.02Q104.69 154.57 108.26 154.48L108.26 154.48L108.26 152.65Q108.26 149.51 106.92 148.00Q105.58 146.49 103.05 146.49L103.05 146.49Q101.22 146.49 100.01 146.92Q98.81 147.35 97.89 147.88Q96.98 148.41 96.23 148.84Q95.48 149.27 94.57 149.27L94.57 149.27Q93.77 149.27 93.22 148.86Q92.68 148.44 92.34 147.90L92.34 147.90ZM129.21 142.50L129.73 144.97Q130.68 144.02 131.73 143.21Q132.78 142.41 133.96 141.84Q135.13 141.28 136.47 140.96Q137.82 140.64 139.40 140.64L139.40 140.64Q141.96 140.64 143.95 141.51Q145.93 142.38 147.25 143.95Q148.58 145.52 149.27 147.70Q149.95 149.88 149.95 152.50L149.95 152.50L149.95 172.42L142.42 172.42L142.42 152.50Q142.42 149.63 141.11 148.06Q139.80 146.49 137.11 146.49L137.11 146.49Q135.16 146.49 133.45 147.38Q131.75 148.26 130.22 149.79L130.22 149.79L130.22 172.42L122.69 172.42L122.69 141.12L127.29 141.12Q128.76 141.12 129.21 142.50L129.21 142.50ZM163.62 142.50L164.14 144.97Q165.08 144.02 166.13 143.21Q167.19 142.41 168.36 141.84Q169.54 141.28 170.88 140.96Q172.22 140.64 173.81 140.64L173.81 140.64Q176.37 140.64 178.35 141.51Q180.33 142.38 181.66 143.95Q182.99 145.52 183.67 147.70Q184.36 149.88 184.36 152.50L184.36 152.50L184.36 172.42L176.82 172.42L176.82 152.50Q176.82 149.63 175.51 148.06Q174.20 146.49 171.52 146.49L171.52 146.49Q169.57 146.49 167.86 147.38Q166.15 148.26 164.62 149.79L164.62 149.79L164.62 172.42L157.09 172.42L157.09 141.12L161.70 141.12Q163.16 141.12 163.62 142.50L163.62 142.50ZM197.44 153.17L211.66 153.17Q211.66 151.71 211.24 150.41Q210.83 149.12 210.01 148.14Q209.19 147.16 207.92 146.60Q206.65 146.03 204.98 146.03L204.98 146.03Q201.71 146.03 199.84 147.90Q197.96 149.76 197.44 153.17L197.44 153.17ZM216.66 157.72L197.29 157.72Q197.47 160.13 198.14 161.88Q198.82 163.63 199.91 164.78Q201.01 165.92 202.52 166.49Q204.03 167.05 205.86 167.05L205.86 167.05Q207.69 167.05 209.02 166.62Q210.34 166.20 211.34 165.68Q212.33 165.16 213.07 164.73Q213.82 164.30 214.52 164.30L214.52 164.30Q215.47 164.30 215.93 165.01L215.93 165.01L218.09 167.75Q216.84 169.22 215.29 170.21Q213.73 171.20 212.04 171.79Q210.34 172.39 208.59 172.63Q206.84 172.88 205.19 172.88L205.19 172.88Q201.93 172.88 199.12 171.79Q196.31 170.71 194.24 168.59Q192.17 166.47 190.98 163.34Q189.79 160.22 189.79 156.10L189.79 156.10Q189.79 152.90 190.82 150.08Q191.86 147.25 193.80 145.17Q195.73 143.08 198.53 141.86Q201.32 140.64 204.82 140.64L204.82 140.64Q207.78 140.64 210.28 141.58Q212.78 142.53 214.58 144.34Q216.38 146.16 217.41 148.80Q218.43 151.43 218.43 154.82L218.43 154.82Q218.43 156.53 218.06 157.12Q217.69 157.72 216.66 157.72L216.66 157.72ZM230.72 143.02L231.18 146.55Q232.64 143.75 234.65 142.15Q236.67 140.54 239.41 140.54L239.41 140.54Q241.58 140.54 242.89 141.49L242.89 141.49L242.40 147.13Q242.25 147.68 241.96 147.91Q241.67 148.14 241.18 148.14L241.18 148.14Q240.72 148.14 239.82 147.99Q238.92 147.83 238.07 147.83L238.07 147.83Q236.82 147.83 235.84 148.20Q234.87 148.57 234.09 149.25Q233.31 149.94 232.72 150.91Q232.12 151.89 231.60 153.14L231.60 153.14L231.60 172.42L224.07 172.42L224.07 141.12L228.49 141.12Q229.65 141.12 230.11 141.54Q230.57 141.95 230.72 143.02L230.72 143.02Z" fill="#999999"/></svg>