<svg xmlns="http://www.w3.org/2000/svg" xmlns:xlink="http://www.w3.org/1999/xlink" width="700" height="200" viewBox="0 0 700 200"><rect width="100%" height="100%" fill="#DDDDDD"/><path d="M200.28 100.48L200.28 125.09Q202.53 127.82 205.18 128.94Q207.82 130.07 210.77 130.07L210.77 130.07Q213.82 130.07 216.25 128.97Q218.68 127.87 220.40 125.55Q222.11 123.22 223.02 119.61Q223.93 116.00 223.93 110.97L223.93 110.97Q223.93 101.93 220.93 97.89Q217.94 93.85 212.32 93.85L212.32 93.85Q208.52 93.85 205.68 95.59Q202.85 97.32 200.28 100.48L200.28 100.48ZM200.28 59.82L200.28 91.17Q203.60 87.69 207.64 85.64Q211.68 83.58 216.87 83.58L216.87 83.58Q221.63 83.58 225.45 85.45Q229.28 87.32 231.98 90.82Q234.68 94.33 236.13 99.30Q237.57 104.28 237.57 110.49L237.57 110.49Q237.57 117.17 235.91 122.63Q234.25 128.09 231.18 131.97Q228.10 135.84 223.77 137.98Q219.43 140.13 214.14 140.13L214.14 140.13Q211.57 140.13 209.48 139.62Q207.40 139.11 205.63 138.20Q203.86 137.29 202.39 135.98Q200.92 134.67 199.58 133.06L199.58 133.06L199.00 136.75Q198.68 138.15 197.90 138.73Q197.12 139.32 195.79 139.32L195.79 139.32L187.07 139.32L187.07 59.82L200.28 59.82ZM276.79 125.14L276.79 115.89Q271.06 116.16 267.16 116.88Q263.25 117.60 260.90 118.72Q258.54 119.85 257.53 121.35Q256.51 122.84 256.51 124.61L256.51 124.61Q256.51 128.09 258.57 129.59Q260.63 131.08 263.95 131.08L263.95 131.08Q268.01 131.08 270.98 129.61Q273.95 128.14 276.79 125.14L276.79 125.14ZM248.86 96.31L246.50 92.08Q255.97 83.41 269.30 83.41L269.30 83.41Q274.11 83.41 277.91 84.99Q281.71 86.57 284.33 89.38Q286.95 92.19 288.31 96.09Q289.68 100 289.68 104.65L289.68 104.65L289.68 139.32L283.69 139.32Q281.81 139.32 280.80 138.76Q279.78 138.20 279.19 136.49L279.19 136.49L278.02 132.53Q275.93 134.40 273.95 135.82Q271.97 137.24 269.83 138.20Q267.69 139.16 265.26 139.67Q262.82 140.18 259.88 140.18L259.88 140.18Q256.40 140.18 253.46 139.24Q250.52 138.31 248.38 136.43Q246.24 134.56 245.06 131.78Q243.88 129.00 243.88 125.31L243.88 125.31Q243.88 123.22 244.58 121.16Q245.27 119.10 246.85 117.23Q248.43 115.35 250.94 113.70Q253.46 112.04 257.12 110.81Q260.79 109.58 265.66 108.80Q270.53 108.02 276.79 107.86L276.79 107.86L276.79 104.65Q276.79 99.14 274.43 96.50Q272.08 93.85 267.64 93.85L267.64 93.85Q264.43 93.85 262.31 94.60Q260.20 95.35 258.60 96.28Q256.99 97.22 255.68 97.97Q254.37 98.72 252.76 98.72L252.76 98.72Q251.37 98.72 250.41 97.99Q249.45 97.27 248.86 96.31L248.86 96.31ZM313.54 86.84L314.45 91.17Q316.11 89.51 317.95 88.10Q319.80 86.68 321.86 85.69Q323.92 84.70 326.27 84.14Q328.63 83.58 331.41 83.58L331.41 83.58Q335.90 83.58 339.38 85.10Q342.86 86.63 345.19 89.38Q347.51 92.14 348.72 95.96Q349.92 99.79 349.92 104.39L349.92 104.39L349.92 139.32L336.71 139.32L336.71 104.39Q336.71 99.36 334.40 96.60Q332.10 93.85 327.40 93.85L327.40 93.85Q323.97 93.85 320.98 95.40Q317.98 96.95 315.31 99.63L315.31 99.63L315.31 139.32L302.09 139.32L302.09 84.43L310.17 84.43Q312.74 84.43 313.54 86.84L313.54 86.84ZM373.89 86.84L374.80 91.17Q376.46 89.51 378.30 88.10Q380.15 86.68 382.21 85.69Q384.27 84.70 386.62 84.14Q388.97 83.58 391.76 83.58L391.76 83.58Q396.25 83.58 399.73 85.10Q403.21 86.63 405.53 89.38Q407.86 92.14 409.06 95.96Q410.27 99.79 410.27 104.39L410.27 104.39L410.27 139.32L397.05 139.32L397.05 104.39Q397.05 99.36 394.75 96.60Q392.45 93.85 387.74 93.85L387.74 93.85Q384.32 93.85 381.32 95.40Q378.33 96.95 375.65 99.63L375.65 99.63L375.65 139.32L362.44 139.32L362.44 84.43L370.52 84.43Q373.09 84.43 373.89 86.84L373.89 86.84ZM433.22 105.56L458.15 105.56Q458.15 103.00 457.43 100.72Q456.71 98.45 455.26 96.74Q453.82 95.02 451.60 94.03Q449.38 93.04 446.43 93.04L446.43 93.04Q440.71 93.04 437.42 96.31Q434.13 99.57 433.22 105.56L433.22 105.56ZM466.92 113.54L432.95 113.54Q433.27 117.76 434.45 120.84Q435.63 123.91 437.55 125.92Q439.48 127.93 442.13 128.92Q444.78 129.91 447.99 129.91L447.99 129.91Q451.20 129.91 453.52 129.16Q455.85 128.41 457.59 127.50Q459.33 126.59 460.64 125.84Q461.95 125.09 463.18 125.09L463.18 125.09Q464.84 125.09 465.64 126.32L465.64 126.32L469.44 131.14Q467.25 133.70 464.52 135.44Q461.79 137.18 458.82 138.23Q455.85 139.27 452.77 139.70Q449.70 140.13 446.81 140.13L446.81 140.13Q441.08 140.13 436.16 138.23Q431.24 136.33 427.60 132.61Q423.96 128.89 421.88 123.41Q419.79 117.92 419.79 110.70L419.79 110.70Q419.79 105.08 421.61 100.13Q423.43 95.19 426.83 91.52Q430.22 87.86 435.12 85.72Q440.01 83.58 446.17 83.58L446.17 83.58Q451.36 83.58 455.74 85.23Q460.13 86.89 463.29 90.08Q466.44 93.26 468.24 97.89Q470.03 102.51 470.03 108.45L470.03 108.45Q470.03 111.45 469.39 112.49Q468.74 113.54 466.92 113.54L466.92 113.54ZM491.59 87.75L492.39 93.95Q494.96 89.03 498.49 86.22Q502.02 83.41 506.84 83.41L506.84 83.41Q510.63 83.41 512.93 85.07L512.93 85.07L512.08 94.97Q511.81 95.93 511.30 96.34Q510.79 96.74 509.94 96.74L509.94 96.74Q509.14 96.74 507.56 96.47Q505.98 96.20 504.48 96.20L504.48 96.20Q502.29 96.20 500.58 96.84Q498.86 97.49 497.50 98.69Q496.14 99.89 495.09 101.60Q494.05 103.32 493.14 105.51L493.14 105.51L493.14 139.32L479.92 139.32L479.92 84.43L487.68 84.43Q489.72 84.43 490.52 85.15Q491.32 85.88 491.59 87.75L491.59 87.75Z" fill="#999999"/></svg>